<mxfile host="app.diagrams.net" agent="Mozilla/5.0 (Windows NT 10.0; Win64; x64) AppleWebKit/537.36 (KHTML, like Gecko) Chrome/133.0.0.0 Safari/537.36" version="26.0.16">
  <diagram name="第 1 页" id="HmwkGfdhcdMk7OfOgWxu">
    <mxGraphModel dx="475" dy="248" grid="0" gridSize="10" guides="1" tooltips="1" connect="1" arrows="1" fold="1" page="1" pageScale="1" pageWidth="827" pageHeight="1169" math="0" shadow="0">
      <root>
        <mxCell id="0" />
        <mxCell id="1" parent="0" />
        <mxCell id="lkvPf1nLItXiMpjwTD0p-1" value="&lt;font&gt;观察&lt;/font&gt;" style="text;html=1;align=center;verticalAlign=middle;whiteSpace=wrap;rounded=0;" vertex="1" parent="1">
          <mxGeometry x="400" y="260" width="60" height="30" as="geometry" />
        </mxCell>
        <mxCell id="lkvPf1nLItXiMpjwTD0p-2" value="决定" style="text;html=1;align=center;verticalAlign=middle;whiteSpace=wrap;rounded=0;" vertex="1" parent="1">
          <mxGeometry x="490" y="320" width="60" height="30" as="geometry" />
        </mxCell>
        <mxCell id="lkvPf1nLItXiMpjwTD0p-3" value="动作" style="text;html=1;align=center;verticalAlign=middle;whiteSpace=wrap;rounded=0;" vertex="1" parent="1">
          <mxGeometry x="400" y="370" width="60" height="30" as="geometry" />
        </mxCell>
        <mxCell id="lkvPf1nLItXiMpjwTD0p-4" value="奖励" style="text;html=1;align=center;verticalAlign=middle;whiteSpace=wrap;rounded=0;" vertex="1" parent="1">
          <mxGeometry x="310" y="310" width="60" height="30" as="geometry" />
        </mxCell>
        <mxCell id="lkvPf1nLItXiMpjwTD0p-5" value="" style="shape=flexArrow;endArrow=classic;html=1;rounded=0;exitX=1;exitY=0.75;exitDx=0;exitDy=0;entryX=0.25;entryY=0;entryDx=0;entryDy=0;strokeWidth=1;endSize=5;startSize=6;targetPerimeterSpacing=0;sourcePerimeterSpacing=0;fontSize=9;" edge="1" parent="1" source="lkvPf1nLItXiMpjwTD0p-1" target="lkvPf1nLItXiMpjwTD0p-2">
          <mxGeometry width="50" height="50" relative="1" as="geometry">
            <mxPoint x="400" y="370" as="sourcePoint" />
            <mxPoint x="450" y="320" as="targetPoint" />
          </mxGeometry>
        </mxCell>
        <mxCell id="lkvPf1nLItXiMpjwTD0p-6" value="" style="shape=flexArrow;endArrow=classic;html=1;rounded=0;entryX=1;entryY=0.25;entryDx=0;entryDy=0;exitX=0.25;exitY=1;exitDx=0;exitDy=0;strokeWidth=1;endSize=5;startSize=6;targetPerimeterSpacing=0;sourcePerimeterSpacing=0;fontSize=9;" edge="1" parent="1" source="lkvPf1nLItXiMpjwTD0p-2" target="lkvPf1nLItXiMpjwTD0p-3">
          <mxGeometry width="50" height="50" relative="1" as="geometry">
            <mxPoint x="400" y="370" as="sourcePoint" />
            <mxPoint x="450" y="320" as="targetPoint" />
          </mxGeometry>
        </mxCell>
        <mxCell id="lkvPf1nLItXiMpjwTD0p-7" value="" style="shape=flexArrow;endArrow=classic;html=1;rounded=0;entryX=0.75;entryY=1;entryDx=0;entryDy=0;exitX=0;exitY=0.25;exitDx=0;exitDy=0;strokeWidth=1;endSize=5;startSize=6;targetPerimeterSpacing=0;sourcePerimeterSpacing=0;fontSize=9;" edge="1" parent="1" source="lkvPf1nLItXiMpjwTD0p-3" target="lkvPf1nLItXiMpjwTD0p-4">
          <mxGeometry width="50" height="50" relative="1" as="geometry">
            <mxPoint x="400" y="370" as="sourcePoint" />
            <mxPoint x="450" y="320" as="targetPoint" />
          </mxGeometry>
        </mxCell>
        <mxCell id="lkvPf1nLItXiMpjwTD0p-8" value="" style="shape=flexArrow;endArrow=classic;html=1;rounded=0;entryX=0;entryY=0.75;entryDx=0;entryDy=0;exitX=0.75;exitY=0;exitDx=0;exitDy=0;strokeWidth=1;endSize=5;startSize=6;targetPerimeterSpacing=0;sourcePerimeterSpacing=0;fontSize=9;" edge="1" parent="1" source="lkvPf1nLItXiMpjwTD0p-4" target="lkvPf1nLItXiMpjwTD0p-1">
          <mxGeometry width="50" height="50" relative="1" as="geometry">
            <mxPoint x="400" y="370" as="sourcePoint" />
            <mxPoint x="450" y="320" as="targetPoint" />
          </mxGeometry>
        </mxCell>
      </root>
    </mxGraphModel>
  </diagram>
</mxfile>
